{
	"asset":{
		"generator":"Khronos glTF Blender I/O v4.1.62",
		"version":"2.0"
	},
	"extensionsUsed":[
		"KHR_materials_unlit"
	],
	"scene":0,
	"scenes":[
		{
			"name":"Scene",
			"nodes":[
				4
			]
		}
	],
	"nodes":[
		{
			"mesh":0,
			"name":"Object_2",
			"translation":[
				-0.7508411407470703,
				18.877939224243164,
				-0.9659419655799866
			]
		},
		{
			"mesh":1,
			"name":"Object_3",
			"translation":[
				4.067171573638916,
				21.518144607543945,
				0.02661919593811035
			]
		},
		{
			"mesh":2,
			"name":"Object_4",
			"translation":[
				4.345883369445801,
				21.898752212524414,
				0.12007105350494385
			]
		},
		{
			"children":[
				0,
				1,
				2
			],
			"name":"chix2.obj.cleaner.materialmerger.gles",
			"translation":[
				0,
				2.0526349544525146e-06,
				0
			]
		},
		{
			"children":[
				3
			],
			"name":"Sketchfab_model.001",
			"rotation":[
				-0.8300324082374573,
				-0.00771673396229744,
				0.09683123230934143,
				0.5491906404495239
			],
			"scale":[
				0.20165270566940308,
				0.20165273547172546,
				0.20165272057056427
			],
			"translation":[
				0.08959851413965225,
				1.9761745929718018,
				3.848125696182251
			]
		}
	],
	"materials":[
		{
			"doubleSided":true,
			"extensions":{
				"KHR_materials_unlit":{}
			},
			"name":"chix2",
			"pbrMetallicRoughness":{
				"baseColorTexture":{
					"index":0
				},
				"metallicFactor":0,
				"roughnessFactor":0.9
			}
		}
	],
	"meshes":[
		{
			"name":"Object_0.001",
			"primitives":[
				{
					"attributes":{
						"POSITION":0,
						"NORMAL":1,
						"TEXCOORD_0":2
					},
					"indices":3,
					"material":0
				}
			]
		},
		{
			"name":"Object_1",
			"primitives":[
				{
					"attributes":{
						"POSITION":4,
						"NORMAL":5,
						"TEXCOORD_0":6
					},
					"indices":7,
					"material":0
				}
			]
		},
		{
			"name":"Object_2",
			"primitives":[
				{
					"attributes":{
						"POSITION":8,
						"NORMAL":9,
						"TEXCOORD_0":10
					},
					"indices":11,
					"material":0
				}
			]
		}
	],
	"textures":[
		{
			"sampler":0,
			"source":0
		}
	],
	"images":[
		{
			"mimeType":"image/jpeg",
			"name":"chix2_baseColor.jpeg",
			"uri":"textures/chix2_baseColor.jpeg"
		}
	],
	"accessors":[
		{
			"bufferView":0,
			"componentType":5126,
			"count":65609,
			"max":[
				9.591169357299805,
				8.919124603271484,
				3.9969003200531006
			],
			"min":[
				-7.6071672439575195,
				-6.077114105224609,
				-3.3188610076904297
			],
			"type":"VEC3"
		},
		{
			"bufferView":1,
			"componentType":5126,
			"count":65609,
			"type":"VEC3"
		},
		{
			"bufferView":2,
			"componentType":5126,
			"count":65609,
			"type":"VEC2"
		},
		{
			"bufferView":3,
			"componentType":5125,
			"count":353463,
			"type":"SCALAR"
		},
		{
			"bufferView":4,
			"componentType":5126,
			"count":65700,
			"max":[
				5.78206729888916,
				7.045289516448975,
				3.367849349975586
			],
			"min":[
				-8.582006454467773,
				-7.767618656158447,
				-4.224784851074219
			],
			"type":"VEC3"
		},
		{
			"bufferView":5,
			"componentType":5126,
			"count":65700,
			"type":"VEC3"
		},
		{
			"bufferView":6,
			"componentType":5126,
			"count":65700,
			"type":"VEC2"
		},
		{
			"bufferView":7,
			"componentType":5125,
			"count":334833,
			"type":"SCALAR"
		},
		{
			"bufferView":8,
			"componentType":5126,
			"count":21630,
			"max":[
				5.504836082458496,
				6.593528747558594,
				3.255133628845215
			],
			"min":[
				-12.234208106994629,
				-7.192298889160156,
				-4.061319351196289
			],
			"type":"VEC3"
		},
		{
			"bufferView":9,
			"componentType":5126,
			"count":21630,
			"type":"VEC3"
		},
		{
			"bufferView":10,
			"componentType":5126,
			"count":21630,
			"type":"VEC2"
		},
		{
			"bufferView":11,
			"componentType":5123,
			"count":76701,
			"type":"SCALAR"
		}
	],
	"bufferViews":[
		{
			"buffer":0,
			"byteLength":787308,
			"byteOffset":0,
			"target":34962
		},
		{
			"buffer":0,
			"byteLength":787308,
			"byteOffset":787308,
			"target":34962
		},
		{
			"buffer":0,
			"byteLength":524872,
			"byteOffset":1574616,
			"target":34962
		},
		{
			"buffer":0,
			"byteLength":1413852,
			"byteOffset":2099488,
			"target":34963
		},
		{
			"buffer":0,
			"byteLength":788400,
			"byteOffset":3513340,
			"target":34962
		},
		{
			"buffer":0,
			"byteLength":788400,
			"byteOffset":4301740,
			"target":34962
		},
		{
			"buffer":0,
			"byteLength":525600,
			"byteOffset":5090140,
			"target":34962
		},
		{
			"buffer":0,
			"byteLength":1339332,
			"byteOffset":5615740,
			"target":34963
		},
		{
			"buffer":0,
			"byteLength":259560,
			"byteOffset":6955072,
			"target":34962
		},
		{
			"buffer":0,
			"byteLength":259560,
			"byteOffset":7214632,
			"target":34962
		},
		{
			"buffer":0,
			"byteLength":173040,
			"byteOffset":7474192,
			"target":34962
		},
		{
			"buffer":0,
			"byteLength":153402,
			"byteOffset":7647232,
			"target":34963
		}
	],
	"samplers":[
		{
			"magFilter":9729,
			"minFilter":9987
		}
	],
	"buffers":[
		{
			"byteLength":7800636,
			"uri":"scene.bin"
		}
	]
}